<svg width="318" height="195" viewBox="0 0 318 195" fill="none" xmlns="http://www.w3.org/2000/svg">
<path d="M90.5465 185.608C105.559 185.608 117.729 173.438 117.729 158.426C117.729 143.414 105.559 131.244 90.5465 131.244C75.5342 131.244 63.3643 143.414 63.3643 158.426C63.3643 173.438 75.5342 185.608 90.5465 185.608Z" stroke="black" stroke-width="17" stroke-miterlimit="10"/>
<path d="M226.315 185.608C241.327 185.608 253.497 173.438 253.497 158.426C253.497 143.414 241.327 131.244 226.315 131.244C211.303 131.244 199.133 143.414 199.133 158.426C199.133 173.438 211.303 185.608 226.315 185.608Z" stroke="black" stroke-width="17" stroke-miterlimit="10"/>
<path d="M199.133 158.426H117.729" stroke="black" stroke-width="17" stroke-miterlimit="10"/>
<path d="M63.3643 158.426H9V76.8794H36.1822L53.1176 34.1849C56.1887 26.6845 61.4363 20.2762 68.1837 15.7864C74.9311 11.2965 82.869 8.93112 90.9734 8.99516H179.636C185.731 8.9758 191.753 10.3355 197.249 12.9726C202.745 15.6097 207.573 19.4557 211.372 24.2229L254.066 76.8794H268.298C279.093 76.8794 289.445 81.1677 297.079 88.8008C304.712 96.4339 309 106.787 309 117.582V158.426H253.497" stroke="black" stroke-width="17" stroke-miterlimit="10"/>
</svg>
