<svg width="318" height="194" viewBox="0 0 318 194" fill="none" xmlns="http://www.w3.org/2000/svg">
<path d="M90.5465 185.217C105.559 185.217 117.729 173.047 117.729 158.034C117.729 143.022 105.559 130.852 90.5465 130.852C75.5342 130.852 63.3643 143.022 63.3643 158.034C63.3643 173.047 75.5342 185.217 90.5465 185.217Z" stroke="black" stroke-width="17" stroke-miterlimit="10"/>
<path d="M226.315 185.217C241.327 185.217 253.497 173.047 253.497 158.034C253.497 143.022 241.327 130.852 226.315 130.852C211.303 130.852 199.133 143.022 199.133 158.034C199.133 173.047 211.303 185.217 226.315 185.217Z" stroke="black" stroke-width="17" stroke-miterlimit="10"/>
<path d="M199.133 158.034H117.729" stroke="black" stroke-width="17" stroke-miterlimit="10"/>
<path d="M63.3643 158.034H9V76.4878H36.1822L53.1176 33.7933C56.1887 26.2929 61.4363 19.8846 68.1837 15.3948C74.9311 10.9049 82.869 8.53952 90.9734 8.60356H179.636C185.731 8.5842 191.753 9.94394 197.249 12.581C202.745 15.2181 207.573 19.0641 211.372 23.8313L254.066 76.4878H268.298C279.093 76.4878 289.445 80.7761 297.079 88.4092C304.712 96.0423 309 106.395 309 117.19V158.034H253.497" stroke="black" stroke-width="17" stroke-miterlimit="10"/>
<g clip-path="url(#clip0_167_1134)">
<path d="M174.752 25.3153C142.958 16.1986 109.672 34.6492 100.555 66.443C91.4385 98.2368 109.889 131.523 141.683 140.639C173.477 149.756 206.763 131.305 215.879 99.5116C224.996 67.7179 206.545 34.432 174.752 25.3153ZM204.934 62.2449C203.91 64.1456 193.666 113.996 152.965 109.515C148.05 108.974 136.397 103.348 135.55 90.441C135.416 88.4003 141.191 71.6743 179.503 73.0257C119.715 55.8819 127.533 109.791 154.624 121.125C162.718 124.511 140.635 124.235 140.635 124.235C140.635 124.235 141.131 132.681 136.656 131.906C136.656 131.906 123.705 104.05 128.025 88.9859C126.412 86.2225 122.574 82.2466 120.847 75.3818C118.364 65.5107 123.663 48.9762 133.605 45.1061C148.361 39.362 158.494 42.0568 174.752 53.9519C174.752 53.9519 186.413 60.8672 198.243 59.4134C199.261 59.2883 201.617 58.3748 203.829 53.3991C204.604 54.0731 205.425 61.3417 204.934 62.2449Z" fill="black"/>
</g>
<defs>
<clipPath id="clip0_167_1134">
<rect width="119.972" height="119.972" fill="white" transform="translate(98.2315 22.9773)"/>
</clipPath>
</defs>
</svg>
