<svg width="17" height="17" viewBox="0 0 17 17" fill="none" xmlns="http://www.w3.org/2000/svg">
<path d="M10.3813 1.2051C6.14117 -0.0107531 1.70201 2.44992 0.486154 6.69009C-0.729698 10.9303 1.73097 15.3694 5.97115 16.5853C10.2113 17.8011 14.6505 15.3405 15.8663 11.1003C17.0822 6.86011 14.6215 2.42095 10.3813 1.2051ZM14.4067 6.13021C14.2701 6.3837 12.9038 13.032 7.47579 12.4344C6.82026 12.3622 5.26621 11.6119 5.15321 9.89058C5.13534 9.61843 5.90561 7.38776 11.015 7.568C3.04136 5.28161 4.08408 12.4712 7.69699 13.9827C8.77649 14.4344 5.83144 14.3975 5.83144 14.3975C5.83144 14.3975 5.89756 15.5239 5.30067 15.4205C5.30067 15.4205 3.57353 11.7056 4.14961 9.69653C3.9345 9.32798 3.42267 8.79774 3.1924 7.88221C2.86128 6.56576 3.56795 4.36063 4.89382 3.8445C6.86172 3.07843 8.21312 3.43782 10.3813 5.02422C10.3813 5.02422 11.9365 5.94647 13.5143 5.75259C13.65 5.73591 13.9643 5.61408 14.2592 4.95049C14.3626 5.04037 14.4721 6.00975 14.4067 6.13021Z" fill="black"/>
</svg>
