<svg width="301" height="80" viewBox="0 0 301 80" fill="none" xmlns="http://www.w3.org/2000/svg">
<path d="M207.122 76.9723C213.331 76.9723 218.364 71.9392 218.364 65.7304C218.364 59.5217 213.331 54.4885 207.122 54.4885C200.914 54.4885 195.881 59.5217 195.881 65.7304C195.881 71.9392 200.914 76.9723 207.122 76.9723Z" stroke="#ffffff" stroke-width="6" stroke-miterlimit="10"/>
<path d="M263.273 76.9723C269.482 76.9723 274.515 71.9392 274.515 65.7304C274.515 59.5217 269.482 54.4885 263.273 54.4885C257.064 54.4885 252.031 59.5217 252.031 65.7304C252.031 71.9392 257.064 76.9723 263.273 76.9723Z" stroke="#ffffff" stroke-width="6" stroke-miterlimit="10"/>
<path d="M252.031 65.7302H218.364" stroke="#ffffff" stroke-width="6" stroke-miterlimit="10"/>
<path d="M195.881 65.7303H173.397V32.0046H184.639L191.643 14.3471C192.913 11.2451 195.083 8.59482 197.874 6.73792C200.664 4.88103 203.947 3.90275 207.299 3.92923H243.968C246.489 3.92123 248.979 4.48358 251.252 5.57421C253.525 6.66483 255.522 8.25547 257.093 10.2271L274.75 32.0046H280.636C285.101 32.0046 289.382 33.7781 292.539 36.935C295.696 40.0918 297.47 44.3735 297.47 48.838V65.7303H274.515" stroke="#ffffff" stroke-width="6" stroke-miterlimit="10"/>
<path d="M217.636 47.903C216.291 49.5074 214.536 50.3095 212.37 50.3095C211.026 50.3095 209.961 50.011 209.177 49.4141C208.43 48.7798 207.777 47.7165 207.216 46.2241L205.592 41.2992C205.218 40.2918 204.882 39.5643 204.584 39.1165C204.285 38.6315 203.818 38.2584 203.183 37.9973L202.231 37.4936L202.343 36.9339C202.642 36.9712 203.034 36.9899 203.519 36.9899C203.967 36.9899 204.285 36.9712 204.472 36.9339C205.853 36.7101 206.936 36.0758 207.721 35.0311C208.505 33.9864 208.897 32.6433 208.897 31.0016C208.897 29.0242 208.43 27.4572 207.497 26.3006C206.563 25.1067 205.331 24.5097 203.799 24.5097C202.119 24.5097 201.279 25.2932 201.279 26.8602V42.4744C201.279 43.9295 201.391 45.1048 201.615 46.0002C201.876 46.8584 202.324 47.7165 202.959 48.5746L203.407 49.2462L202.959 49.8058H193.212L192.82 48.7985C193.754 48.5373 194.426 48.2948 194.837 48.0709C195.247 47.8098 195.527 47.474 195.677 47.0636C195.826 46.6532 195.901 46.0189 195.901 45.1608V30.2741C195.901 28.9683 195.789 27.9795 195.565 27.308C195.378 26.5991 194.911 26.0208 194.164 25.5731L193.492 25.1813L193.716 24.4538C194.874 24.0807 196.349 23.7822 198.142 23.5583C199.972 23.2971 201.596 23.1666 203.015 23.1666C206.563 23.1666 209.364 23.8755 211.418 25.2932C213.472 26.711 214.499 28.6511 214.499 31.1136C214.499 32.8298 213.939 34.3595 212.818 35.7027C211.735 37.0085 210.335 37.8853 208.617 38.333C209.961 38.93 210.895 39.9374 211.418 41.3551L213.378 46.8397C213.677 47.7351 214.256 48.1829 215.115 48.1829C215.787 48.1829 216.478 47.8844 217.188 47.2874L217.636 47.903Z" fill="#ffffff"/>
<path d="M225.209 46.6158C225.209 47.7351 225.564 48.2948 226.273 48.2948C226.983 48.2948 227.674 48.015 228.346 47.4553L228.794 48.015C227.412 49.5447 225.788 50.3095 223.921 50.3095C222.576 50.3095 221.605 49.9737 221.008 49.3022C220.41 48.5933 220.111 47.4553 220.111 45.8883V34.8073C220.111 34.2849 219.869 34.0237 219.383 34.0237H217.647L217.479 33.4081C218.226 32.7739 219.159 32.2515 220.28 31.8411C221.4 31.4307 222.52 31.2255 223.641 31.2255C224.089 31.2255 224.462 31.3374 224.761 31.5613C225.06 31.7852 225.209 32.0836 225.209 32.4567V46.6158ZM219.551 25.8529C219.551 25.1813 219.925 24.4351 220.672 23.6143C221.419 22.7935 222.109 22.3831 222.744 22.3831C223.417 22.3831 224.126 22.7935 224.873 23.6143C225.657 24.4351 226.049 25.1813 226.049 25.8529C226.049 26.5618 225.657 27.3266 224.873 28.1474C224.126 28.9309 223.417 29.3227 222.744 29.3227C222.109 29.3227 221.419 28.9309 220.672 28.1474C219.925 27.3266 219.551 26.5618 219.551 25.8529Z" fill="#ffffff"/>
<path d="M251.421 48.015C250.039 49.5447 248.414 50.3095 246.547 50.3095C245.389 50.3095 244.53 50.067 243.97 49.582C243.41 49.0596 243.037 48.2202 242.85 47.0636C241.879 48.1829 240.871 49.0037 239.825 49.526C238.779 50.0484 237.622 50.3095 236.352 50.3095C234.485 50.3095 232.953 49.4887 231.758 47.8471C230.601 46.2054 230.022 44.0788 230.022 41.4671C230.022 38.333 230.843 35.8519 232.487 34.0237C234.13 32.1583 236.37 31.2255 239.209 31.2255C240.516 31.2255 241.711 31.524 242.794 32.1209V25.9088C242.794 25.3865 242.551 25.1253 242.066 25.1253H240.161L239.937 24.5657C240.684 23.8941 241.636 23.3718 242.794 22.9987C243.952 22.5883 245.091 22.3831 246.211 22.3831C246.696 22.3831 247.089 22.495 247.387 22.7188C247.686 22.9054 247.835 23.1852 247.835 23.5583V46.6158C247.835 47.7351 248.19 48.2948 248.9 48.2948C249.609 48.2948 250.3 48.015 250.972 47.4553L251.421 48.015ZM239.265 47.6232C240.684 47.6232 241.86 46.8397 242.794 45.2727V33.2402C242.047 32.8671 241.225 32.6806 240.329 32.6806C237.192 32.6806 235.624 35.3856 235.624 40.7955C235.624 42.9968 235.922 44.6944 236.52 45.8883C237.155 47.0449 238.07 47.6232 239.265 47.6232Z" fill="#ffffff"/>
<path d="M263.588 48.4627C264.671 48.4627 265.623 48.2761 266.445 47.903C267.266 47.4926 268.069 46.821 268.853 45.8883L269.526 46.392C268.667 47.6232 267.565 48.5933 266.221 49.3022C264.914 49.9737 263.476 50.3095 261.907 50.3095C260.189 50.3095 258.64 49.8991 257.258 49.0783C255.913 48.2575 254.849 47.1382 254.065 45.7204C253.281 44.2653 252.888 42.6237 252.888 40.7955C252.888 37.8853 253.766 35.5721 255.521 33.8559C257.314 32.1023 259.685 31.2255 262.635 31.2255C264.727 31.2255 266.426 31.7292 267.733 32.7366C269.078 33.7066 269.75 34.9751 269.75 36.5422C269.75 38.333 268.984 39.7695 267.453 40.8515C265.959 41.8961 263.905 42.4185 261.291 42.4185C260.245 42.4185 259.293 42.3439 258.434 42.1946C258.621 44.1347 259.181 45.6644 260.115 46.7837C261.048 47.903 262.206 48.4627 263.588 48.4627ZM262.019 32.5687C260.862 32.5687 259.947 33.2775 259.274 34.6953C258.64 36.0758 258.322 38.0159 258.322 40.5157V41.4111C258.733 41.4111 259.237 41.3738 259.835 41.2992C261.403 41.1126 262.598 40.6089 263.42 39.7881C264.279 38.93 264.708 37.8107 264.708 36.4302C264.708 35.3109 264.447 34.3968 263.924 33.688C263.438 32.9418 262.804 32.5687 262.019 32.5687Z" fill="#ffffff"/>
<g clip-path="url(#clip0_167_1145)">
<path d="M145.643 25.6057C131.796 21.635 117.298 29.671 113.328 43.5184C109.357 57.3659 117.393 71.8632 131.24 75.8339C145.088 79.8047 159.585 71.7687 163.556 57.9212C167.527 44.0737 159.491 29.5764 145.643 25.6057ZM158.789 41.69C158.343 42.5178 153.881 64.2298 136.154 62.2779C134.013 62.0422 128.938 59.592 128.569 53.9705C128.511 53.0817 131.026 45.7969 147.712 46.3855C121.672 38.9186 125.078 62.3983 136.877 67.3346C140.402 68.8096 130.784 68.6892 130.784 68.6892C130.784 68.6892 131 72.3677 129.051 72.0301C129.051 72.0301 123.41 59.8979 125.292 53.3368C124.589 52.1332 122.918 50.4016 122.166 47.4116C121.084 43.1124 123.392 35.9109 127.722 34.2254C134.149 31.7236 138.562 32.8972 145.643 38.0781C145.643 38.0781 150.722 41.0899 155.875 40.4568C156.318 40.4023 157.344 40.0044 158.307 37.8373C158.645 38.1308 159.003 41.2966 158.789 41.69Z" fill="#ffffff"/>
</g>
<path d="M8.60956 25.1671C8.60956 21.2536 8.31577 18.1717 7.72818 15.9215C7.1406 13.6712 6.01441 11.4209 4.3496 9.17067L3.17443 7.55635L4.3496 5.94203H36.8134C42.1996 5.94203 45.823 5.30608 47.6837 4.03419L49.4464 2.71338L50.9154 4.03419V22.3788L47.9775 23.4061C46.2147 18.1228 44.452 14.5028 42.6892 12.5461C41.0244 10.5893 38.6251 9.61094 35.4914 9.61094H28.8811C26.3349 9.61094 24.6701 10.1001 23.8867 11.0785C23.1032 11.959 22.7115 13.9158 22.7115 16.9488V37.7882H33.288C36.2259 37.7882 38.3803 37.4947 39.7513 36.9077C41.2203 36.3206 42.2975 35.1466 42.983 33.3855L43.7175 31.3309L45.6272 32.505V48.9417L42.3955 50.1158L41.8079 46.8871C41.4162 44.8325 40.3389 43.4139 38.5762 42.6312C36.8134 41.8485 33.9735 41.4571 30.0563 41.4571H22.7115V63.6174C22.7115 66.5525 23.1522 68.5093 24.0336 69.4876C24.9149 70.3682 26.8735 70.8085 29.9094 70.8085H37.1072C40.0451 70.8085 42.3465 69.7812 44.0113 67.7266C45.774 65.672 47.4389 62.1009 49.0057 57.0133L52.0905 58.0406V75.6514L50.4747 76.9722C49.1037 75.9939 47.5368 75.309 45.774 74.9176C44.0113 74.6241 41.5631 74.4774 38.4293 74.4774H1.55859L0.530319 71.8357C2.97857 71.1509 4.74132 70.5149 5.81855 69.9279C6.89578 69.243 7.63026 68.3625 8.02198 67.2863C8.4137 66.2101 8.60956 64.5468 8.60956 62.2966V25.1671Z" fill="#ffffff"/>
<path d="M104.251 38.6688C104.251 41.8974 103.272 44.4412 101.313 46.3001C99.3545 48.159 96.9552 49.0885 94.1152 49.0885C91.8628 49.0885 89.8063 48.5014 87.9456 47.3274C90.1001 45.3706 91.1773 42.6312 91.1773 39.109C91.1773 36.2717 90.5897 33.9725 89.4146 32.2115C88.2394 30.3525 86.5256 29.4231 84.2732 29.4231C81.727 29.4231 79.6215 31.4288 77.9567 35.4401C76.3898 39.3536 75.6064 44.4901 75.6064 50.8495C75.6064 56.9155 76.7326 61.8074 78.985 65.5252C81.3353 69.1452 84.616 70.9552 88.827 70.9552C91.7649 70.9552 94.2621 70.4171 96.3186 69.3409C98.4731 68.2647 100.481 66.6993 102.341 64.6447L104.104 65.8187C102.048 68.7539 99.3545 71.1509 96.0248 73.0098C92.6952 74.8687 88.827 75.7982 84.4201 75.7982C77.565 75.7982 71.934 73.499 67.5272 68.9006C63.1203 64.3022 60.9169 58.3831 60.9169 51.1431C60.9169 43.4139 63.2182 37.2501 67.8209 32.6517C72.4237 28.0534 78.5443 25.7542 86.1829 25.7542C91.569 25.7542 95.9269 26.9771 99.2565 29.4231C102.586 31.7712 104.251 34.8531 104.251 38.6688Z" fill="#ffffff"/>
<defs>
<clipPath id="clip0_167_1145">
<rect width="52.2524" height="52.2525" fill="white" transform="translate(112.316 24.7197)"/>
</clipPath>
</defs>
</svg>
