<svg width="300" height="300" viewBox="0 0 300 300" fill="none" xmlns="http://www.w3.org/2000/svg">
<g clip-path="url(#clip0_167_1135)">
<path d="M191.346 5.81091C111.842 -16.9863 28.6079 29.1512 5.81071 108.655C-16.9865 188.158 29.151 271.392 108.654 294.189C188.158 316.987 271.392 270.849 294.189 191.346C316.986 111.842 270.849 28.6081 191.346 5.81091ZM266.82 98.1568C264.26 102.91 238.642 227.566 136.866 216.359C124.575 215.006 95.4367 200.939 93.318 168.664C92.983 163.561 107.425 121.736 203.226 125.115C53.7208 82.2454 73.2719 217.051 141.014 245.392C161.255 253.86 106.035 253.169 106.035 253.169C106.035 253.169 107.275 274.288 96.0829 272.35C96.0829 272.35 63.699 202.695 74.5006 165.025C70.4673 158.115 60.8703 148.173 56.5527 131.007C50.3444 106.323 63.5945 64.977 88.4544 55.2996C125.353 40.936 150.691 47.6744 191.346 77.4194C191.346 77.4194 220.505 94.7116 250.088 91.0764C252.633 90.7636 258.525 88.4793 264.055 76.0369C265.995 77.7223 268.047 95.8982 266.82 98.1568Z" fill="#91AE7B"/>
</g>
<defs>
<clipPath id="clip0_167_1135">
<rect width="300" height="300" fill="white"/>
</clipPath>
</defs>
</svg>
