<svg width="300" height="102" viewBox="0 0 300 102" fill="none" xmlns="http://www.w3.org/2000/svg">
<path d="M206.592 76.4694C212.801 76.4694 217.834 71.4362 217.834 65.2275C217.834 59.0188 212.801 53.9856 206.592 53.9856C200.383 53.9856 195.35 59.0188 195.35 65.2275C195.35 71.4362 200.383 76.4694 206.592 76.4694Z" stroke="#ffffff" stroke-width="6" stroke-miterlimit="10"/>
<path d="M262.743 76.4694C268.951 76.4694 273.985 71.4362 273.985 65.2275C273.985 59.0188 268.951 53.9856 262.743 53.9856C256.534 53.9856 251.501 59.0188 251.501 65.2275C251.501 71.4362 256.534 76.4694 262.743 76.4694Z" stroke="#ffffff" stroke-width="6" stroke-miterlimit="10"/>
<path d="M251.501 65.2273H217.834" stroke="#ffffff" stroke-width="6" stroke-miterlimit="10"/>
<path d="M195.35 65.2274H172.866V31.5016H184.108L191.112 13.8442C192.383 10.7422 194.553 8.09189 197.343 6.23499C200.134 4.3781 203.417 3.39982 206.769 3.42631H243.437C245.958 3.4183 248.449 3.98065 250.722 5.07128C252.995 6.1619 254.991 7.75254 256.563 9.72413L274.22 31.5016H280.106C284.57 31.5016 288.852 33.2752 292.009 36.432C295.166 39.5889 296.939 43.8706 296.939 48.3351V65.2274H273.985" stroke="#ffffff" stroke-width="6" stroke-miterlimit="10"/>
<path d="M217.105 47.4001C215.761 49.0044 214.006 49.8066 211.84 49.8066C210.495 49.8066 209.431 49.5081 208.647 48.9112C207.9 48.2769 207.246 47.2136 206.686 45.7212L205.062 40.7962C204.688 39.7889 204.352 39.0613 204.053 38.6136C203.755 38.1286 203.288 37.7555 202.653 37.4943L201.701 36.9906L201.813 36.431C202.111 36.4683 202.503 36.487 202.989 36.487C203.437 36.487 203.755 36.4683 203.941 36.431C205.323 36.2071 206.406 35.5729 207.19 34.5282C207.975 33.4835 208.367 32.1403 208.367 30.4987C208.367 28.5213 207.9 26.9543 206.966 25.7977C206.033 24.6037 204.8 24.0068 203.269 24.0068C201.589 24.0068 200.748 24.7903 200.748 26.3573V41.9715C200.748 43.4266 200.86 44.6019 201.084 45.4973C201.346 46.3554 201.794 47.2136 202.429 48.0717L202.877 48.7433L202.429 49.3029H192.682L192.29 48.2955C193.223 48.0344 193.895 47.7919 194.306 47.568C194.717 47.3068 194.997 46.971 195.146 46.5606C195.296 46.1502 195.371 45.516 195.371 44.6578V29.7712C195.371 28.4653 195.259 27.4766 195.034 26.805C194.848 26.0961 194.381 25.5178 193.634 25.0701L192.962 24.6784L193.186 23.9508C194.344 23.5777 195.819 23.2792 197.611 23.0554C199.441 22.7942 201.066 22.6636 202.485 22.6636C206.033 22.6636 208.833 23.3725 210.887 24.7903C212.941 26.2081 213.968 28.1482 213.968 30.6106C213.968 32.3269 213.408 33.8566 212.288 35.1998C211.205 36.5056 209.804 37.3824 208.087 37.8301C209.431 38.4271 210.365 39.4344 210.887 40.8522L212.848 46.3368C213.147 47.2322 213.726 47.6799 214.585 47.6799C215.257 47.6799 215.948 47.3814 216.657 46.7845L217.105 47.4001Z" fill="#ffffff"/>
<path d="M224.679 46.1129C224.679 47.2322 225.034 47.7919 225.743 47.7919C226.453 47.7919 227.144 47.512 227.816 46.9524L228.264 47.512C226.882 49.0417 225.258 49.8066 223.39 49.8066C222.046 49.8066 221.075 49.4708 220.477 48.7992C219.88 48.0903 219.581 46.9524 219.581 45.3854V34.3043C219.581 33.782 219.338 33.5208 218.853 33.5208H217.116L216.948 32.9052C217.695 32.2709 218.629 31.7486 219.749 31.3382C220.87 30.9278 221.99 30.7226 223.11 30.7226C223.558 30.7226 223.932 30.8345 224.231 31.0584C224.529 31.2822 224.679 31.5807 224.679 31.9538V46.1129ZM219.021 25.3499C219.021 24.6784 219.394 23.9322 220.141 23.1114C220.888 22.2905 221.579 21.8801 222.214 21.8801C222.886 21.8801 223.596 22.2905 224.343 23.1114C225.127 23.9322 225.519 24.6784 225.519 25.3499C225.519 26.0588 225.127 26.8237 224.343 27.6445C223.596 28.428 222.886 28.8198 222.214 28.8198C221.579 28.8198 220.888 28.428 220.141 27.6445C219.394 26.8237 219.021 26.0588 219.021 25.3499Z" fill="#ffffff"/>
<path d="M250.89 47.512C249.508 49.0417 247.884 49.8066 246.017 49.8066C244.859 49.8066 244 49.5641 243.44 49.079C242.88 48.5567 242.506 47.7172 242.32 46.5606C241.349 47.6799 240.34 48.5007 239.295 49.0231C238.249 49.5454 237.091 49.8066 235.821 49.8066C233.954 49.8066 232.423 48.9858 231.228 47.3441C230.07 45.7025 229.491 43.5758 229.491 40.9641C229.491 37.8301 230.313 35.349 231.956 33.5208C233.599 31.6553 235.84 30.7226 238.678 30.7226C239.985 30.7226 241.18 31.0211 242.264 31.618V25.4059C242.264 24.8836 242.021 24.6224 241.535 24.6224H239.631L239.407 24.0628C240.153 23.3912 241.106 22.8688 242.264 22.4957C243.421 22.0853 244.56 21.8801 245.681 21.8801C246.166 21.8801 246.558 21.9921 246.857 22.2159C247.156 22.4025 247.305 22.6823 247.305 23.0554V46.1129C247.305 47.2322 247.66 47.7919 248.369 47.7919C249.079 47.7919 249.77 47.512 250.442 46.9524L250.89 47.512ZM238.734 47.1203C240.153 47.1203 241.33 46.3368 242.264 44.7698V32.7373C241.517 32.3642 240.695 32.1777 239.799 32.1777C236.662 32.1777 235.093 34.8826 235.093 40.2926C235.093 42.4938 235.392 44.1915 235.99 45.3854C236.624 46.542 237.539 47.1203 238.734 47.1203Z" fill="#ffffff"/>
<path d="M263.057 47.9597C264.14 47.9597 265.093 47.7732 265.914 47.4001C266.736 46.9897 267.539 46.3181 268.323 45.3854L268.995 45.889C268.136 47.1203 267.035 48.0903 265.69 48.7992C264.383 49.4708 262.945 49.8066 261.377 49.8066C259.659 49.8066 258.109 49.3962 256.727 48.5754C255.383 47.7545 254.319 46.6352 253.534 45.2175C252.75 43.7624 252.358 42.1207 252.358 40.2926C252.358 37.3824 253.236 35.0692 254.991 33.3529C256.783 31.5994 259.155 30.7226 262.105 30.7226C264.196 30.7226 265.896 31.2263 267.203 32.2336C268.547 33.2037 269.219 34.4722 269.219 36.0392C269.219 37.8301 268.454 39.2665 266.923 40.3485C265.429 41.3932 263.375 41.9155 260.761 41.9155C259.715 41.9155 258.763 41.8409 257.904 41.6917C258.091 43.6318 258.651 45.1615 259.584 46.2808C260.518 47.4001 261.676 47.9597 263.057 47.9597ZM261.489 32.0657C260.331 32.0657 259.416 32.7746 258.744 34.1924C258.109 35.5729 257.792 37.513 257.792 40.0127V40.9082C258.203 40.9082 258.707 40.8709 259.304 40.7962C260.873 40.6097 262.068 40.106 262.889 39.2852C263.748 38.4271 264.178 37.3078 264.178 35.9273C264.178 34.808 263.916 33.8939 263.394 33.185C262.908 32.4388 262.273 32.0657 261.489 32.0657Z" fill="#ffffff"/>
<g clip-path="url(#clip0_167_1110)">
<path d="M145.113 25.1027C131.265 21.132 116.768 29.168 112.797 43.0155C108.827 56.863 116.863 71.3603 130.71 75.331C144.558 79.3017 159.055 71.2657 163.026 57.4182C166.996 43.5708 158.96 29.0734 145.113 25.1027ZM158.259 41.1871C157.813 42.0149 153.351 63.7268 135.624 61.775C133.483 61.5393 128.408 59.0891 128.039 53.4676C127.981 52.5788 130.496 45.2939 147.182 45.8826C121.142 38.4157 124.547 61.8954 136.346 66.8317C139.872 68.3066 130.254 68.1862 130.254 68.1862C130.254 68.1862 130.47 71.8648 128.52 71.5272C128.52 71.5272 122.88 59.3949 124.761 52.8339C124.059 51.6303 122.387 49.8986 121.635 46.9087C120.554 42.6095 122.862 35.408 127.192 33.7224C133.619 31.2206 138.032 32.3943 145.113 37.5751C145.113 37.5751 150.192 40.587 155.344 39.9538C155.788 39.8994 156.814 39.5015 157.777 37.3343C158.115 37.6279 158.472 40.7937 158.259 41.1871Z" fill="#ffffff"/>
</g>
<path d="M8.07924 24.6642C8.07924 20.7507 7.78545 17.6688 7.19787 15.4185C6.61028 13.1683 5.48409 10.918 3.81928 8.66774L2.64411 7.05342L3.81928 5.4391H36.2831C41.6693 5.4391 45.2927 4.80315 47.1534 3.53126L48.9161 2.21045L50.3851 3.53126V21.8758L47.4472 22.9031C45.6844 17.6199 43.9217 13.9999 42.1589 12.0431C40.4941 10.0864 38.0948 9.10801 34.9611 9.10801H28.3508C25.8046 9.10801 24.1398 9.5972 23.3563 10.5756C22.5729 11.4561 22.1812 13.4129 22.1812 16.4458V37.2853H32.7576C35.6955 37.2853 37.85 36.9918 39.221 36.4047C40.69 35.8177 41.7672 34.6437 42.4527 32.8826L43.1872 30.828L45.0968 32.002V48.4388L41.8651 49.6128L41.2776 46.3842C40.8858 44.3296 39.8086 42.911 38.0459 42.1283C36.2831 41.3456 33.4431 40.9542 29.5259 40.9542H22.1812V63.1145C22.1812 66.0496 22.6219 68.0063 23.5032 68.9847C24.3846 69.8652 26.3432 70.3055 29.379 70.3055H36.5769C39.5148 70.3055 41.8162 69.2782 43.481 67.2236C45.2437 65.169 46.9085 61.598 48.4754 56.5104L51.5602 57.5377V75.1485L49.9444 76.4693C48.5734 75.4909 47.0065 74.8061 45.2437 74.4147C43.481 74.1212 41.0327 73.9744 37.899 73.9744H1.02827L0 71.3328C2.44825 70.648 4.211 70.012 5.28823 69.425C6.36546 68.7401 7.09994 67.8596 7.49166 66.7834C7.88338 65.7072 8.07924 64.0439 8.07924 61.7936V24.6642Z" fill="#ffffff"/>
<path d="M103.721 38.1658C103.721 41.3945 102.741 43.9383 100.783 45.7972C98.8241 47.6561 96.4249 48.5855 93.5849 48.5855C91.3325 48.5855 89.276 47.9985 87.4153 46.8245C89.5697 44.8677 90.647 42.1283 90.647 38.6061C90.647 35.7688 90.0594 33.4696 88.8842 31.7085C87.7091 29.8496 85.9953 28.9202 83.7429 28.9202C81.1967 28.9202 79.0912 30.9258 77.4264 34.9372C75.8595 38.8507 75.0761 43.9872 75.0761 50.3466C75.0761 56.4126 76.2023 61.3045 78.4547 65.0223C80.805 68.6423 84.0857 70.4523 88.2967 70.4523C91.2346 70.4523 93.7318 69.9142 95.7883 68.838C97.9428 67.7617 99.9503 66.1963 101.811 64.1417L103.574 65.3158C101.517 68.2509 98.8241 70.648 95.4945 72.5069C92.1649 74.3658 88.2966 75.2952 83.8898 75.2952C77.0347 75.2952 71.4037 72.9961 66.9968 68.3977C62.59 63.7993 60.3866 57.8801 60.3866 50.6401C60.3866 42.911 62.6879 36.7472 67.2906 32.1488C71.8933 27.5504 78.014 25.2512 85.6525 25.2512C91.0387 25.2512 95.3966 26.4742 98.7262 28.9202C102.056 31.2683 103.721 34.3501 103.721 38.1658Z" fill="#ffffff"/>
<path d="M1.50505 88.1293C1.50505 87.4703 1.47768 86.9762 1.42295 86.6467C1.36823 86.2989 1.25877 86.0061 1.09458 85.7681C0.930393 85.5302 0.665869 85.2556 0.30101 84.9445L0.54729 84.5876H5.30871L5.50026 85.0268C5.08068 85.2648 4.77967 85.4753 4.59724 85.6583C4.41481 85.8413 4.28711 86.0701 4.21413 86.3447C4.1594 86.6192 4.13204 87.0494 4.13204 87.6351V95.2951C4.13204 95.8808 4.21413 96.2652 4.37832 96.4482C4.54251 96.6312 4.90737 96.7227 5.4729 96.7227H6.51275C7.0418 96.7227 7.46139 96.5489 7.77152 96.2011C8.08165 95.835 8.4009 95.1486 8.72928 94.142L9.27657 94.3341V97.6288L9.00292 97.8759C8.76576 97.6928 8.50124 97.5647 8.20935 97.4915C7.91746 97.4366 7.47963 97.4091 6.89585 97.4091H0.164187L0 96.9149C0.456075 96.7868 0.784449 96.6678 0.985122 96.558C1.18579 96.4299 1.32262 96.2652 1.39559 96.0638C1.46856 95.8625 1.50505 95.5513 1.50505 95.1303V88.1293Z" fill="#ffffff"/>
<path d="M13.4353 91.3415C13.0522 91.5612 12.5962 91.671 12.0671 91.671C11.684 91.671 11.383 91.5612 11.1641 91.3415C10.9452 91.1036 10.8357 90.7741 10.8357 90.3531C10.8357 89.7308 11.1367 89.2366 11.7387 88.8706C12.359 88.4862 13.1617 88.294 14.1468 88.294C15.3144 88.294 16.2265 88.5502 16.8833 89.0627C17.5582 89.5752 17.8957 90.2708 17.8957 91.1493V95.8991C17.8957 96.4116 18.0782 96.6678 18.443 96.6678C18.7896 96.6678 19.1271 96.5306 19.4555 96.256L19.6744 96.5306C18.9994 97.281 18.1968 97.6562 17.2664 97.6562C16.7191 97.6562 16.2995 97.5189 16.0076 97.2444C15.7339 96.9698 15.5698 96.5397 15.515 95.954H15.4056C15.1137 96.4848 14.7215 96.9058 14.2289 97.2169C13.7546 97.5098 13.2073 97.6562 12.587 97.6562C11.8938 97.6562 11.3374 97.4457 10.9178 97.0247C10.4982 96.5855 10.2884 96.0181 10.2884 95.3225C10.2884 94.5355 10.6624 93.9132 11.4104 93.4556C12.1583 92.998 13.1708 92.7692 14.4478 92.7692C14.685 92.7692 15.0225 92.7875 15.4603 92.8241V91.4513C15.4603 90.5545 15.3508 89.9139 15.1319 89.5295C14.913 89.1268 14.5573 88.9255 14.0647 88.9255C13.7181 88.9255 13.4444 89.0353 13.2438 89.2549C13.0431 89.4746 12.9428 89.7583 12.9428 90.106C12.9428 90.6551 13.107 91.067 13.4353 91.3415ZM13.8458 96.2835C14.9221 96.2835 15.4603 95.3042 15.4603 93.3458C14.5482 93.3458 13.864 93.5013 13.408 93.8125C12.9519 94.1053 12.7239 94.5263 12.7239 95.0754C12.7239 95.4415 12.8242 95.7344 13.0249 95.954C13.2255 96.1736 13.4992 96.2835 13.8458 96.2835Z" fill="#ffffff"/>
<path d="M30.8447 88.294C31.4285 88.294 31.9028 88.4679 32.2677 88.8156C32.6325 89.1451 32.815 89.5752 32.815 90.106C32.815 90.6002 32.669 91.0029 32.3771 91.3141C32.0852 91.6069 31.7021 91.7534 31.2278 91.7534C30.863 91.7534 30.5255 91.6801 30.2153 91.5337C30.5437 91.2592 30.7079 90.8473 30.7079 90.2982C30.7079 90.042 30.6532 89.8406 30.5437 89.6942C30.4342 89.5478 30.2883 89.4746 30.1059 89.4746C29.668 89.4746 29.3032 89.923 29.0113 90.8199C28.7194 91.6984 28.5735 92.7966 28.5735 94.1145C28.5735 94.7917 28.6099 95.3317 28.6829 95.7344C28.7741 96.137 28.9201 96.5122 29.1207 96.86L29.3397 97.1346L29.1207 97.4091H25.1529L24.9887 96.9424L25.3718 96.86C25.6637 96.7868 25.8552 96.677 25.9465 96.5306C26.0377 96.3658 26.0833 96.0547 26.0833 95.5971V90.2433C26.0833 89.8956 25.9647 89.7217 25.7275 89.7217H24.8792L24.7698 89.4197C25.1164 89.1085 25.5451 88.8523 26.0559 88.6509C26.585 88.4496 27.1049 88.3489 27.6157 88.3489C27.8529 88.3489 28.0444 88.4038 28.1904 88.5136C28.3363 88.6235 28.4093 88.7699 28.4093 88.9529V90.9572H28.4914C28.8745 89.1817 29.6589 88.294 30.8447 88.294Z" fill="#ffffff"/>
<path d="M33.5643 92.9888C33.5643 91.5429 33.9747 90.3989 34.7957 89.5569C35.6348 88.715 36.7659 88.294 38.1889 88.294C39.6118 88.294 40.7429 88.7241 41.5821 89.5844C42.4212 90.4264 42.8408 91.5612 42.8408 92.9888C42.8408 94.4165 42.4212 95.5513 41.5821 96.3933C40.7429 97.2352 39.6118 97.6562 38.1889 97.6562C36.7659 97.6562 35.6348 97.2352 34.7957 96.3933C33.9747 95.5513 33.5643 94.4165 33.5643 92.9888ZM40.077 93.0437C40.077 91.8174 39.9037 90.8199 39.5571 90.0511C39.2105 89.2641 38.7726 88.8706 38.2436 88.8706C37.6598 88.8706 37.1855 89.2549 36.8206 90.0237C36.4558 90.7741 36.2734 91.7625 36.2734 92.9888C36.2734 94.2335 36.4375 95.2219 36.7659 95.954C37.1125 96.6861 37.5686 97.0522 38.1341 97.0522C38.6997 97.0522 39.1649 96.6861 39.5297 95.954C39.8946 95.2036 40.077 94.2335 40.077 93.0437Z" fill="#ffffff"/>
<path d="M50.7975 94.9107C50.5421 95.716 50.0951 96.375 49.4566 96.8875C48.8364 97.4 48.1705 97.6562 47.459 97.6562C46.6563 97.6562 46.0634 97.4 45.6803 96.8875C45.2972 96.375 45.1057 95.5879 45.1057 94.5263V90.0511C45.1057 89.7949 44.9871 89.6668 44.7499 89.6668H43.9016L43.8195 89.3648C44.1844 89.0536 44.6405 88.7973 45.1878 88.596C45.7351 88.3947 46.2732 88.294 46.8023 88.294C47.0394 88.294 47.2219 88.3489 47.3496 88.4587C47.4955 88.5686 47.5685 88.715 47.5685 88.898V94.389C47.5685 95.0114 47.6597 95.4964 47.8421 95.8442C48.0246 96.1736 48.28 96.3384 48.6083 96.3384C49.2833 96.3384 49.8215 95.9265 50.2228 95.1029C50.6424 94.2609 50.8522 93.1719 50.8522 91.8357C50.8522 91.1219 50.7975 90.5728 50.688 90.1884C50.5968 89.7857 50.4235 89.438 50.1681 89.1451L49.9218 88.8431L50.1407 88.596L53.2877 88.3489V95.8442C53.2877 96.3933 53.4518 96.6678 53.7802 96.6678C54.1268 96.6678 54.4643 96.5306 54.7927 96.256L55.0116 96.5306C54.3731 97.281 53.5796 97.6562 52.6309 97.6562C51.9377 97.6562 51.4542 97.4549 51.1806 97.0522C50.9252 96.6495 50.7975 95.9357 50.7975 94.9107Z" fill="#ffffff"/>
<path d="M58.8621 97.6562C58.1141 97.6562 57.576 97.4915 57.2476 97.162C56.9192 96.8143 56.755 96.256 56.755 95.4873V89.6668H55.3868C55.3868 89.3556 55.4051 89.1543 55.4415 89.0627C55.478 88.9712 55.5875 88.898 55.7699 88.8431C56.3719 88.6784 56.8463 88.4221 57.1929 88.0744C57.5395 87.7266 57.8223 87.2232 58.0412 86.5643C58.0959 86.363 58.1871 86.244 58.3148 86.2074C58.4425 86.1525 58.7527 86.125 59.2452 86.125V88.596H61.4891C61.4891 88.834 61.4526 89.0536 61.3796 89.2549C61.3067 89.438 61.2063 89.5752 61.0786 89.6668H59.2452V95.8442C59.2452 96.3933 59.4733 96.6678 59.9293 96.6678C60.13 96.6678 60.3489 96.6038 60.5861 96.4756C60.8415 96.3475 61.0695 96.1736 61.2702 95.954L61.4891 96.2285C60.7047 97.1803 59.829 97.6562 58.8621 97.6562Z" fill="#ffffff"/>
<path d="M67.545 96.7502C68.074 96.7502 68.5392 96.6587 68.9406 96.4756C69.3419 96.2743 69.7342 95.9448 70.1173 95.4873L70.4456 95.7344C70.026 96.3384 69.4879 96.8143 68.8311 97.162C68.1926 97.4915 67.4903 97.6562 66.7241 97.6562C65.8849 97.6562 65.1278 97.4549 64.4528 97.0522C63.7961 96.6495 63.2761 96.1004 62.893 95.4049C62.5099 94.6911 62.3184 93.8857 62.3184 92.9888C62.3184 91.5612 62.7471 90.4264 63.6045 89.5844C64.4802 88.7241 65.6386 88.294 67.0798 88.294C68.1014 88.294 68.9315 88.5411 69.57 89.0353C70.2267 89.5112 70.5551 90.1335 70.5551 90.9022C70.5551 91.7808 70.1811 92.4855 69.4331 93.0163C68.7034 93.5288 67.7001 93.785 66.423 93.785C65.9122 93.785 65.447 93.7484 65.0275 93.6752C65.1187 94.627 65.3923 95.3774 65.8484 95.9265C66.3045 96.4756 66.87 96.7502 67.545 96.7502ZM66.7788 88.9529C66.2133 88.9529 65.7663 89.3007 65.4379 89.9962C65.1278 90.6734 64.9727 91.6252 64.9727 92.8516V93.2908C65.1734 93.2908 65.4197 93.2725 65.7116 93.2359C66.4778 93.1444 67.0616 92.8973 67.4629 92.4946C67.8825 92.0737 68.0923 91.5246 68.0923 90.8473C68.0923 90.2982 67.9646 89.8498 67.7092 89.502C67.472 89.136 67.1619 88.9529 66.7788 88.9529Z" fill="#ffffff"/>
<path d="M81.3284 96.7776C81.9121 96.7776 82.3682 96.4024 82.6966 95.652C83.0432 94.8832 83.2165 93.9223 83.2165 92.7692C83.2165 91.2134 82.8881 89.9871 82.2314 89.0902L81.9851 88.7882L82.204 88.5686L84.5026 88.294C84.5574 89.081 84.5847 89.7125 84.5847 90.1884C84.5847 92.5312 84.229 94.3616 83.5175 95.6794C82.806 96.9973 81.8483 97.6562 80.6442 97.6562C79.6956 97.6562 78.975 97.3725 78.4825 96.8051C78.0081 96.2377 77.6706 95.3042 77.47 94.0047L76.8953 90.0511C76.8771 89.9047 76.8406 89.804 76.7859 89.7491C76.7311 89.6942 76.649 89.6668 76.5396 89.6668H75.8007L75.7186 89.3648C76.0835 89.0353 76.5213 88.779 77.0321 88.596C77.5429 88.3947 78.0446 88.294 78.5372 88.294C78.8108 88.294 79.0024 88.3764 79.1118 88.5411C79.2395 88.7058 79.3399 89.0353 79.4128 89.5295L80.1243 94.444C80.252 95.3408 80.398 95.954 80.5622 96.2835C80.7263 96.6129 80.9817 96.7776 81.3284 96.7776Z" fill="#ffffff"/>
<path d="M91.5424 96.7502C92.0714 96.7502 92.5366 96.6587 92.938 96.4756C93.3393 96.2743 93.7315 95.9448 94.1146 95.4873L94.443 95.7344C94.0234 96.3384 93.4853 96.8143 92.8285 97.162C92.19 97.4915 91.4876 97.6562 90.7214 97.6562C89.8823 97.6562 89.1252 97.4549 88.4502 97.0522C87.7934 96.6495 87.2735 96.1004 86.8904 95.4049C86.5073 94.6911 86.3158 93.8857 86.3158 92.9888C86.3158 91.5612 86.7445 90.4264 87.6019 89.5844C88.4776 88.7241 89.636 88.294 91.0772 88.294C92.0988 88.294 92.9288 88.5411 93.5674 89.0353C94.2241 89.5112 94.5525 90.1335 94.5525 90.9022C94.5525 91.7808 94.1785 92.4855 93.4305 93.0163C92.7008 93.5288 91.6974 93.785 90.4204 93.785C89.9096 93.785 89.4444 93.7484 89.0248 93.6752C89.1161 94.627 89.3897 95.3774 89.8458 95.9265C90.3018 96.4756 90.8674 96.7502 91.5424 96.7502ZM90.7762 88.9529C90.2106 88.9529 89.7637 89.3007 89.4353 89.9962C89.1252 90.6734 88.9701 91.6252 88.9701 92.8516V93.2908C89.1708 93.2908 89.4171 93.2725 89.709 93.2359C90.4752 93.1444 91.0589 92.8973 91.4603 92.4946C91.8799 92.0737 92.0897 91.5246 92.0897 90.8473C92.0897 90.2982 91.962 89.8498 91.7066 89.502C91.4694 89.136 91.1593 88.9529 90.7762 88.9529Z" fill="#ffffff"/>
<path d="M101.714 88.294C102.298 88.294 102.773 88.4679 103.137 88.8156C103.502 89.1451 103.685 89.5752 103.685 90.106C103.685 90.6002 103.539 91.0029 103.247 91.3141C102.955 91.6069 102.572 91.7534 102.098 91.7534C101.733 91.7534 101.395 91.6801 101.085 91.5337C101.413 91.2592 101.578 90.8473 101.578 90.2982C101.578 90.042 101.523 89.8406 101.413 89.6942C101.304 89.5478 101.158 89.4746 100.976 89.4746C100.538 89.4746 100.173 89.923 99.8811 90.8199C99.5892 91.6984 99.4432 92.7966 99.4432 94.1145C99.4432 94.7917 99.4797 95.3317 99.5527 95.7344C99.6439 96.137 99.7898 96.5122 99.9905 96.86L100.209 97.1346L99.9905 97.4091H96.0227L95.8585 96.9424L96.2416 96.86C96.5335 96.7868 96.725 96.677 96.8162 96.5306C96.9075 96.3658 96.9531 96.0547 96.9531 95.5971V90.2433C96.9531 89.8956 96.8345 89.7217 96.5973 89.7217H95.749L95.6396 89.4197C95.9862 89.1085 96.4149 88.8523 96.9257 88.6509C97.4548 88.4496 97.9747 88.3489 98.4855 88.3489C98.7226 88.3489 98.9142 88.4038 99.0601 88.5136C99.2061 88.6235 99.279 88.7699 99.279 88.9529V90.9572H99.3611C99.7442 89.1817 100.529 88.294 101.714 88.294Z" fill="#ffffff"/>
<path d="M107.143 90.161C107.143 90.6185 107.316 90.9938 107.663 91.2866C108.028 91.5612 108.575 91.8723 109.305 92.2201C109.907 92.5129 110.372 92.7692 110.701 92.9888C111.029 93.1902 111.312 93.4647 111.549 93.8125C111.804 94.1603 111.932 94.5721 111.932 95.048C111.932 95.835 111.558 96.4665 110.81 96.9424C110.08 97.4183 109.095 97.6562 107.855 97.6562C106.924 97.6562 106.158 97.4915 105.556 97.162C104.954 96.8143 104.653 96.3658 104.653 95.8167C104.653 95.4506 104.79 95.1486 105.063 94.9107C105.337 94.6544 105.675 94.5263 106.076 94.5263C106.386 94.5263 106.696 94.5904 107.006 94.7185C106.696 94.9565 106.541 95.3408 106.541 95.8716C106.541 96.2377 106.669 96.5214 106.924 96.7227C107.18 96.9241 107.49 97.0247 107.855 97.0247C108.274 97.0247 108.63 96.9149 108.922 96.6953C109.232 96.4756 109.387 96.1645 109.387 95.7618C109.387 95.3774 109.232 95.0754 108.922 94.8558C108.63 94.6178 108.165 94.3433 107.526 94.0321C106.942 93.7576 106.468 93.5105 106.103 93.2908C105.757 93.0529 105.456 92.7417 105.2 92.3574C104.945 91.973 104.817 91.5063 104.817 90.9572C104.817 90.1335 105.164 89.4837 105.857 89.0078C106.55 88.5319 107.426 88.294 108.484 88.294C109.414 88.294 110.171 88.4679 110.755 88.8156C111.357 89.1634 111.658 89.6118 111.658 90.161C111.658 90.5819 111.531 90.8931 111.275 91.0944C111.02 91.2958 110.691 91.3964 110.29 91.3964C109.907 91.3964 109.569 91.3141 109.278 91.1493C109.606 90.8382 109.77 90.4447 109.77 89.9688C109.77 89.6576 109.652 89.4105 109.414 89.2275C109.177 89.0261 108.867 88.9255 108.484 88.9255C108.064 88.9255 107.736 89.0444 107.499 89.2824C107.262 89.5203 107.143 89.8132 107.143 90.161Z" fill="#ffffff"/>
<path d="M124.687 94.9107C124.432 95.716 123.985 96.375 123.346 96.8875C122.726 97.4 122.06 97.6562 121.349 97.6562C120.546 97.6562 119.953 97.4 119.57 96.8875C119.187 96.375 118.995 95.5879 118.995 94.5263V90.0511C118.995 89.7949 118.877 89.6668 118.639 89.6668H117.791L117.709 89.3648C118.074 89.0536 118.53 88.7973 119.077 88.596C119.625 88.3947 120.163 88.294 120.692 88.294C120.929 88.294 121.111 88.3489 121.239 88.4587C121.385 88.5686 121.458 88.715 121.458 88.898V94.389C121.458 95.0114 121.549 95.4964 121.732 95.8442C121.914 96.1736 122.169 96.3384 122.498 96.3384C123.173 96.3384 123.711 95.9265 124.112 95.1029C124.532 94.2609 124.742 93.1719 124.742 91.8357C124.742 91.1219 124.687 90.5728 124.578 90.1884C124.486 89.7857 124.313 89.438 124.058 89.1451L123.811 88.8431L124.03 88.596L127.177 88.3489V95.8442C127.177 96.3933 127.341 96.6678 127.67 96.6678C128.016 96.6678 128.354 96.5306 128.682 96.256L128.901 96.5306C128.263 97.281 127.469 97.6562 126.52 97.6562C125.827 97.6562 125.344 97.4549 125.07 97.0522C124.815 96.6495 124.687 95.9357 124.687 94.9107Z" fill="#ffffff"/>
<path d="M139.237 95.8442C139.237 96.3933 139.41 96.6678 139.757 96.6678C140.104 96.6678 140.441 96.5306 140.769 96.256L140.988 96.5306C140.313 97.281 139.52 97.6562 138.608 97.6562C137.951 97.6562 137.477 97.4915 137.185 97.162C136.911 96.8143 136.774 96.256 136.774 95.4873V91.2866C136.774 90.225 136.437 89.6942 135.762 89.6942C135.105 89.6942 134.567 90.1426 134.147 91.0395C133.746 91.9364 133.545 93.1078 133.545 94.5538C133.545 95.1029 133.591 95.5513 133.682 95.8991C133.773 96.2285 133.919 96.5489 134.12 96.86L134.339 97.1346L134.12 97.4091H130.152L129.988 96.9424L130.371 96.86C130.663 96.7868 130.854 96.677 130.946 96.5306C131.037 96.3658 131.082 96.0547 131.082 95.5971V90.2433C131.082 89.8956 130.964 89.7217 130.727 89.7217H129.851L129.769 89.4197C130.134 89.1085 130.59 88.8523 131.137 88.6509C131.684 88.4496 132.232 88.3489 132.779 88.3489C133.016 88.3489 133.199 88.4038 133.326 88.5136C133.472 88.6235 133.545 88.7699 133.545 88.9529V91.3141C133.801 90.4538 134.257 89.74 134.913 89.1726C135.57 88.5869 136.263 88.294 136.993 88.294C137.778 88.294 138.343 88.5502 138.69 89.0627C139.055 89.5752 139.237 90.3897 139.237 91.5063V95.8442Z" fill="#ffffff"/>
<path d="M149.892 95.5971C149.892 96.0364 149.947 96.3384 150.056 96.5031C150.184 96.6495 150.467 96.7685 150.905 96.86L151.26 96.9424L151.096 97.4091H146.827L146.608 97.1346L146.827 96.86C147.046 96.5672 147.192 96.256 147.265 95.9265C147.356 95.5788 147.402 95.112 147.402 94.5263V89.6668H146.006C146.006 89.3556 146.025 89.1543 146.061 89.0627C146.097 88.9712 146.207 88.898 146.389 88.8431L147.402 88.596C147.402 87.0219 147.739 85.8139 148.414 84.9719C149.108 84.13 150.093 83.709 151.37 83.709C152.172 83.709 152.82 83.8829 153.313 84.2306C153.823 84.5784 154.079 85.036 154.079 85.6034C154.079 86.0976 153.933 86.5003 153.641 86.8114C153.349 87.1043 152.966 87.2507 152.492 87.2507C152.127 87.2507 151.789 87.1775 151.479 87.0311C151.808 86.7565 151.972 86.3447 151.972 85.7956C151.972 85.3563 151.89 85.0085 151.725 84.7523C151.561 84.496 151.333 84.3679 151.041 84.3679C150.676 84.3679 150.394 84.5601 150.193 84.9445C149.992 85.3288 149.892 85.8688 149.892 86.5643V88.596H151.89C151.89 89.1085 151.753 89.4654 151.479 89.6668H149.892V95.5971Z" fill="#ffffff"/>
<path d="M159.267 94.9107C159.011 95.716 158.564 96.375 157.926 96.8875C157.306 97.4 156.64 97.6562 155.928 97.6562C155.126 97.6562 154.533 97.4 154.15 96.8875C153.766 96.375 153.575 95.5879 153.575 94.5263V90.0511C153.575 89.7949 153.456 89.6668 153.219 89.6668H152.371L152.289 89.3648C152.654 89.0536 153.11 88.7973 153.657 88.596C154.204 88.3947 154.742 88.294 155.272 88.294C155.509 88.294 155.691 88.3489 155.819 88.4587C155.965 88.5686 156.038 88.715 156.038 88.898V94.389C156.038 95.0114 156.129 95.4964 156.311 95.8442C156.494 96.1736 156.749 96.3384 157.078 96.3384C157.753 96.3384 158.291 95.9265 158.692 95.1029C159.112 94.2609 159.321 93.1719 159.321 91.8357C159.321 91.1219 159.267 90.5728 159.157 90.1884C159.066 89.7857 158.893 89.438 158.637 89.1451L158.391 88.8431L158.61 88.596L161.757 88.3489V95.8442C161.757 96.3933 161.921 96.6678 162.249 96.6678C162.596 96.6678 162.934 96.5306 163.262 96.256L163.481 96.5306C162.842 97.281 162.049 97.6562 161.1 97.6562C160.407 97.6562 159.923 97.4549 159.65 97.0522C159.394 96.6495 159.267 95.9357 159.267 94.9107Z" fill="#ffffff"/>
<path d="M167.331 97.6562C166.583 97.6562 166.045 97.4915 165.717 97.162C165.388 96.8143 165.224 96.256 165.224 95.4873V89.6668H163.856C163.856 89.3556 163.874 89.1543 163.911 89.0627C163.947 88.9712 164.057 88.898 164.239 88.8431C164.841 88.6784 165.316 88.4221 165.662 88.0744C166.009 87.7266 166.292 87.2232 166.51 86.5643C166.565 86.363 166.656 86.244 166.784 86.2074C166.912 86.1525 167.222 86.125 167.714 86.125V88.596H169.958C169.958 88.834 169.922 89.0536 169.849 89.2549C169.776 89.438 169.676 89.5752 169.548 89.6668H167.714V95.8442C167.714 96.3933 167.942 96.6678 168.399 96.6678C168.599 96.6678 168.818 96.6038 169.055 96.4756C169.311 96.3475 169.539 96.1736 169.739 95.954L169.958 96.2285C169.174 97.1803 168.298 97.6562 167.331 97.6562Z" fill="#ffffff"/>
<path d="M177.492 94.9107C177.237 95.716 176.79 96.375 176.151 96.8875C175.531 97.4 174.865 97.6562 174.153 97.6562C173.351 97.6562 172.758 97.4 172.375 96.8875C171.992 96.375 171.8 95.5879 171.8 94.5263V90.0511C171.8 89.7949 171.682 89.6668 171.444 89.6668H170.596L170.514 89.3648C170.879 89.0536 171.335 88.7973 171.882 88.596C172.429 88.3947 172.968 88.294 173.497 88.294C173.734 88.294 173.916 88.3489 174.044 88.4587C174.19 88.5686 174.263 88.715 174.263 88.898V94.389C174.263 95.0114 174.354 95.4964 174.537 95.8442C174.719 96.1736 174.974 96.3384 175.303 96.3384C175.978 96.3384 176.516 95.9265 176.917 95.1029C177.337 94.2609 177.547 93.1719 177.547 91.8357C177.547 91.1219 177.492 90.5728 177.382 90.1884C177.291 89.7857 177.118 89.438 176.863 89.1451L176.616 88.8431L176.835 88.596L179.982 88.3489V95.8442C179.982 96.3933 180.146 96.6678 180.475 96.6678C180.821 96.6678 181.159 96.5306 181.487 96.256L181.706 96.5306C181.068 97.281 180.274 97.6562 179.325 97.6562C178.632 97.6562 178.149 97.4549 177.875 97.0522C177.62 96.6495 177.492 95.9357 177.492 94.9107Z" fill="#ffffff"/>
<path d="M188.485 88.294C189.068 88.294 189.543 88.4679 189.907 88.8156C190.272 89.1451 190.455 89.5752 190.455 90.106C190.455 90.6002 190.309 91.0029 190.017 91.3141C189.725 91.6069 189.342 91.7534 188.868 91.7534C188.503 91.7534 188.165 91.6801 187.855 91.5337C188.184 91.2592 188.348 90.8473 188.348 90.2982C188.348 90.042 188.293 89.8406 188.184 89.6942C188.074 89.5478 187.928 89.4746 187.746 89.4746C187.308 89.4746 186.943 89.923 186.651 90.8199C186.359 91.6984 186.213 92.7966 186.213 94.1145C186.213 94.7917 186.25 95.3317 186.323 95.7344C186.414 96.137 186.56 96.5122 186.761 96.86L186.979 97.1346L186.761 97.4091H182.793L182.629 96.9424L183.012 96.86C183.304 96.7868 183.495 96.677 183.586 96.5306C183.678 96.3658 183.723 96.0547 183.723 95.5971V90.2433C183.723 89.8956 183.605 89.7217 183.367 89.7217H182.519L182.41 89.4197C182.756 89.1085 183.185 88.8523 183.696 88.6509C184.225 88.4496 184.745 88.3489 185.256 88.3489C185.493 88.3489 185.684 88.4038 185.83 88.5136C185.976 88.6235 186.049 88.7699 186.049 88.9529V90.9572H186.131C186.514 89.1817 187.299 88.294 188.485 88.294Z" fill="#ffffff"/>
<path d="M201.766 88.294C202.35 88.294 202.824 88.4679 203.189 88.8156C203.554 89.1451 203.736 89.5752 203.736 90.106C203.736 90.6002 203.59 91.0029 203.298 91.3141C203.006 91.6069 202.623 91.7534 202.149 91.7534C201.784 91.7534 201.447 91.6801 201.137 91.5337C201.465 91.2592 201.629 90.8473 201.629 90.2982C201.629 90.042 201.574 89.8406 201.465 89.6942C201.355 89.5478 201.21 89.4746 201.027 89.4746C200.589 89.4746 200.224 89.923 199.933 90.8199C199.641 91.6984 199.495 92.7966 199.495 94.1145C199.495 94.7917 199.531 95.3317 199.604 95.7344C199.695 96.137 199.841 96.5122 200.042 96.86L200.261 97.1346L200.042 97.4091H196.074L195.91 96.9424L196.293 96.86C196.585 96.7868 196.776 96.677 196.868 96.5306C196.959 96.3658 197.005 96.0547 197.005 95.5971V90.2433C197.005 89.8956 196.886 89.7217 196.649 89.7217H195.8L195.691 89.4197C196.038 89.1085 196.466 88.8523 196.977 88.6509C197.506 88.4496 198.026 88.3489 198.537 88.3489C198.774 88.3489 198.966 88.4038 199.112 88.5136C199.258 88.6235 199.331 88.7699 199.331 88.9529V90.9572H199.413C199.796 89.1817 200.58 88.294 201.766 88.294Z" fill="#ffffff"/>
<path d="M209.712 96.7502C210.241 96.7502 210.706 96.6587 211.108 96.4756C211.509 96.2743 211.901 95.9448 212.284 95.4873L212.613 95.7344C212.193 96.3384 211.655 96.8143 210.998 97.162C210.36 97.4915 209.657 97.6562 208.891 97.6562C208.052 97.6562 207.295 97.4549 206.62 97.0522C205.963 96.6495 205.443 96.1004 205.06 95.4049C204.677 94.6911 204.486 93.8857 204.486 92.9888C204.486 91.5612 204.914 90.4264 205.772 89.5844C206.647 88.7241 207.806 88.294 209.247 88.294C210.269 88.294 211.099 88.5411 211.737 89.0353C212.394 89.5112 212.722 90.1335 212.722 90.9022C212.722 91.7808 212.348 92.4855 211.6 93.0163C210.871 93.5288 209.867 93.785 208.59 93.785C208.079 93.785 207.614 93.7484 207.195 93.6752C207.286 94.627 207.559 95.3774 208.016 95.9265C208.472 96.4756 209.037 96.7502 209.712 96.7502ZM208.946 88.9529C208.38 88.9529 207.933 89.3007 207.605 89.9962C207.295 90.6734 207.14 91.6252 207.14 92.8516V93.2908C207.341 93.2908 207.587 93.2725 207.879 93.2359C208.645 93.1444 209.229 92.8973 209.63 92.4946C210.05 92.0737 210.259 91.5246 210.259 90.8473C210.259 90.2982 210.132 89.8498 209.876 89.502C209.639 89.136 209.329 88.9529 208.946 88.9529Z" fill="#ffffff"/>
<path d="M216.628 90.161C216.628 90.6185 216.801 90.9938 217.148 91.2866C217.513 91.5612 218.06 91.8723 218.79 92.2201C219.392 92.5129 219.857 92.7692 220.185 92.9888C220.514 93.1902 220.796 93.4647 221.034 93.8125C221.289 94.1603 221.417 94.5721 221.417 95.048C221.417 95.835 221.043 96.4665 220.295 96.9424C219.565 97.4183 218.58 97.6562 217.339 97.6562C216.409 97.6562 215.643 97.4915 215.041 97.162C214.439 96.8143 214.138 96.3658 214.138 95.8167C214.138 95.4506 214.275 95.1486 214.548 94.9107C214.822 94.6544 215.159 94.5263 215.561 94.5263C215.871 94.5263 216.181 94.5904 216.491 94.7185C216.181 94.9565 216.026 95.3408 216.026 95.8716C216.026 96.2377 216.154 96.5214 216.409 96.7227C216.664 96.9241 216.974 97.0247 217.339 97.0247C217.759 97.0247 218.115 96.9149 218.407 96.6953C218.717 96.4756 218.872 96.1645 218.872 95.7618C218.872 95.3774 218.717 95.0754 218.407 94.8558C218.115 94.6178 217.649 94.3433 217.011 94.0321C216.427 93.7576 215.953 93.5105 215.588 93.2908C215.241 93.0529 214.94 92.7417 214.685 92.3574C214.43 91.973 214.302 91.5063 214.302 90.9572C214.302 90.1335 214.648 89.4837 215.342 89.0078C216.035 88.5319 216.911 88.294 217.969 88.294C218.899 88.294 219.656 88.4679 220.24 88.8156C220.842 89.1634 221.143 89.6118 221.143 90.161C221.143 90.5819 221.015 90.8931 220.76 91.0944C220.505 91.2958 220.176 91.3964 219.775 91.3964C219.392 91.3964 219.054 91.3141 218.762 91.1493C219.091 90.8382 219.255 90.4447 219.255 89.9688C219.255 89.6576 219.136 89.4105 218.899 89.2275C218.662 89.0261 218.352 88.9255 217.969 88.9255C217.549 88.9255 217.221 89.0444 216.984 89.2824C216.746 89.5203 216.628 89.8132 216.628 90.161Z" fill="#ffffff"/>
<path d="M229.411 88.294C230.342 88.294 231.089 88.7058 231.655 89.5295C232.239 90.3348 232.531 91.3964 232.531 92.7143C232.531 93.6478 232.357 94.4897 232.011 95.2402C231.682 95.9723 231.208 96.5489 230.588 96.9698C229.986 97.3725 229.302 97.5738 228.535 97.5738C228.098 97.5738 227.678 97.5098 227.277 97.3817C226.894 97.2352 226.565 97.0339 226.292 96.7776V99.9075C226.292 100.347 226.346 100.64 226.456 100.786C226.583 100.951 226.866 101.079 227.304 101.17L227.66 101.253L227.496 101.72H223.254L223.035 101.445L223.254 101.17C223.473 100.878 223.619 100.557 223.692 100.21C223.783 99.8801 223.829 99.4316 223.829 98.8642V90.2433C223.829 89.9139 223.71 89.7491 223.473 89.7491H222.625L222.543 89.4471C222.889 89.136 223.336 88.8797 223.883 88.6784C224.449 88.477 224.996 88.3764 225.525 88.3764C225.763 88.3764 225.945 88.4313 226.073 88.5411C226.219 88.6509 226.292 88.7973 226.292 88.9804V90.1884C226.748 89.5295 227.222 89.0536 227.715 88.7607C228.225 88.4496 228.791 88.294 229.411 88.294ZM227.496 96.7776C228.244 96.7776 228.809 96.4573 229.192 95.8167C229.594 95.1761 229.794 94.2335 229.794 92.9888C229.794 91.9089 229.648 91.0853 229.356 90.5179C229.065 89.9322 228.645 89.6393 228.098 89.6393C227.368 89.6393 226.766 90.1243 226.292 91.0944V96.4207C226.638 96.6587 227.04 96.7776 227.496 96.7776Z" fill="#ffffff"/>
<path d="M233.801 92.9888C233.801 91.5429 234.211 90.3989 235.032 89.5569C235.871 88.715 237.002 88.294 238.425 88.294C239.848 88.294 240.979 88.7241 241.819 89.5844C242.658 90.4264 243.077 91.5612 243.077 92.9888C243.077 94.4165 242.658 95.5513 241.819 96.3933C240.979 97.2352 239.848 97.6562 238.425 97.6562C237.002 97.6562 235.871 97.2352 235.032 96.3933C234.211 95.5513 233.801 94.4165 233.801 92.9888ZM240.314 93.0437C240.314 91.8174 240.14 90.8199 239.794 90.0511C239.447 89.2641 239.009 88.8706 238.48 88.8706C237.896 88.8706 237.422 89.2549 237.057 90.0237C236.692 90.7741 236.51 91.7625 236.51 92.9888C236.51 94.2335 236.674 95.2219 237.002 95.954C237.349 96.6861 237.805 97.0522 238.371 97.0522C238.936 97.0522 239.401 96.6861 239.766 95.954C240.131 95.2036 240.314 94.2335 240.314 93.0437Z" fill="#ffffff"/>
<path d="M253.853 95.8442C253.853 96.3933 254.026 96.6678 254.372 96.6678C254.719 96.6678 255.057 96.5306 255.385 96.256L255.604 96.5306C254.929 97.281 254.135 97.6562 253.223 97.6562C252.566 97.6562 252.092 97.4915 251.8 97.162C251.527 96.8143 251.39 96.256 251.39 95.4873V91.2866C251.39 90.225 251.052 89.6942 250.377 89.6942C249.721 89.6942 249.182 90.1426 248.763 91.0395C248.361 91.9364 248.161 93.1078 248.161 94.5538C248.161 95.1029 248.206 95.5513 248.298 95.8991C248.389 96.2285 248.535 96.5489 248.735 96.86L248.954 97.1346L248.735 97.4091H244.768L244.603 96.9424L244.986 96.86C245.278 96.7868 245.47 96.677 245.561 96.5306C245.652 96.3658 245.698 96.0547 245.698 95.5971V90.2433C245.698 89.8956 245.579 89.7217 245.342 89.7217H244.467L244.384 89.4197C244.749 89.1085 245.205 88.8523 245.753 88.6509C246.3 88.4496 246.847 88.3489 247.395 88.3489C247.632 88.3489 247.814 88.4038 247.942 88.5136C248.088 88.6235 248.161 88.7699 248.161 88.9529V91.3141C248.416 90.4538 248.872 89.74 249.529 89.1726C250.186 88.5869 250.879 88.294 251.609 88.294C252.393 88.294 252.959 88.5502 253.305 89.0627C253.67 89.5752 253.853 90.3897 253.853 91.5063V95.8442Z" fill="#ffffff"/>
<path d="M259.118 90.161C259.118 90.6185 259.291 90.9938 259.638 91.2866C260.002 91.5612 260.55 91.8723 261.279 92.2201C261.881 92.5129 262.347 92.7692 262.675 92.9888C263.003 93.1902 263.286 93.4647 263.523 93.8125C263.779 94.1603 263.906 94.5721 263.906 95.048C263.906 95.835 263.532 96.4665 262.784 96.9424C262.055 97.4183 261.07 97.6562 259.829 97.6562C258.899 97.6562 258.133 97.4915 257.531 97.162C256.928 96.8143 256.628 96.3658 256.628 95.8167C256.628 95.4506 256.764 95.1486 257.038 94.9107C257.312 94.6544 257.649 94.5263 258.05 94.5263C258.361 94.5263 258.671 94.5904 258.981 94.7185C258.671 94.9565 258.516 95.3408 258.516 95.8716C258.516 96.2377 258.643 96.5214 258.899 96.7227C259.154 96.9241 259.464 97.0247 259.829 97.0247C260.249 97.0247 260.604 96.9149 260.896 96.6953C261.206 96.4756 261.362 96.1645 261.362 95.7618C261.362 95.3774 261.206 95.0754 260.896 94.8558C260.604 94.6178 260.139 94.3433 259.501 94.0321C258.917 93.7576 258.443 93.5105 258.078 93.2908C257.731 93.0529 257.43 92.7417 257.175 92.3574C256.919 91.973 256.792 91.5063 256.792 90.9572C256.792 90.1335 257.138 89.4837 257.832 89.0078C258.525 88.5319 259.4 88.294 260.459 88.294C261.389 88.294 262.146 88.4679 262.73 88.8156C263.332 89.1634 263.633 89.6118 263.633 90.161C263.633 90.5819 263.505 90.8931 263.25 91.0944C262.994 91.2958 262.666 91.3964 262.265 91.3964C261.881 91.3964 261.544 91.3141 261.252 91.1493C261.58 90.8382 261.745 90.4447 261.745 89.9688C261.745 89.6576 261.626 89.4105 261.389 89.2275C261.152 89.0261 260.842 88.9255 260.459 88.9255C260.039 88.9255 259.711 89.0444 259.473 89.2824C259.236 89.5203 259.118 89.8132 259.118 90.161Z" fill="#ffffff"/>
<path d="M268.508 91.3415C268.125 91.5612 267.669 91.671 267.139 91.671C266.756 91.671 266.455 91.5612 266.236 91.3415C266.018 91.1036 265.908 90.7741 265.908 90.3531C265.908 89.7308 266.209 89.2366 266.811 88.8706C267.431 88.4862 268.234 88.294 269.219 88.294C270.387 88.294 271.299 88.5502 271.956 89.0627C272.631 89.5752 272.968 90.2708 272.968 91.1493V95.8991C272.968 96.4116 273.151 96.6678 273.515 96.6678C273.862 96.6678 274.2 96.5306 274.528 96.256L274.747 96.5306C274.072 97.281 273.269 97.6562 272.339 97.6562C271.791 97.6562 271.372 97.5189 271.08 97.2444C270.806 96.9698 270.642 96.5397 270.587 95.954H270.478C270.186 96.4848 269.794 96.9058 269.301 97.2169C268.827 97.5098 268.28 97.6562 267.659 97.6562C266.966 97.6562 266.41 97.4457 265.99 97.0247C265.571 96.5855 265.361 96.0181 265.361 95.3225C265.361 94.5355 265.735 93.9132 266.483 93.4556C267.231 92.998 268.243 92.7692 269.52 92.7692C269.757 92.7692 270.095 92.7875 270.533 92.8241V91.4513C270.533 90.5545 270.423 89.9139 270.204 89.5295C269.985 89.1268 269.63 88.9255 269.137 88.9255C268.791 88.9255 268.517 89.0353 268.316 89.2549C268.116 89.4746 268.015 89.7583 268.015 90.106C268.015 90.6551 268.179 91.067 268.508 91.3415ZM268.918 96.2835C269.995 96.2835 270.533 95.3042 270.533 93.3458C269.621 93.3458 268.936 93.5013 268.48 93.8125C268.024 94.1053 267.796 94.5263 267.796 95.0754C267.796 95.4415 267.897 95.7344 268.097 95.954C268.298 96.1736 268.572 96.2835 268.918 96.2835Z" fill="#ffffff"/>
<path d="M280.992 88.294C281.722 88.294 282.379 88.4862 282.963 88.8706C283.565 89.2366 284.03 89.7491 284.358 90.408C284.705 91.067 284.878 91.8083 284.878 92.6319C284.878 93.5837 284.65 94.444 284.194 95.2127C283.756 95.9631 283.145 96.558 282.361 96.9973C281.576 97.4366 280.7 97.6562 279.734 97.6562C279.077 97.6562 278.42 97.5555 277.763 97.3542C277.107 97.1529 276.568 96.8783 276.149 96.5306V85.6858C276.149 85.5393 276.121 85.4387 276.067 85.3837C276.012 85.3288 275.921 85.3014 275.793 85.3014H274.945L274.863 85.0268C275.209 84.6974 275.656 84.4411 276.204 84.2581C276.769 84.0567 277.326 83.9561 277.873 83.9561C278.11 83.9561 278.292 84.011 278.42 84.1208C278.566 84.2123 278.639 84.3496 278.639 84.5326V89.1451C278.913 88.8706 279.25 88.6601 279.651 88.5136C280.071 88.3672 280.518 88.294 280.992 88.294ZM279.87 97.0247C281.385 97.0247 282.142 95.716 282.142 93.0987C282.142 91.7991 281.95 90.8107 281.567 90.1335C281.202 89.438 280.655 89.0902 279.925 89.0902C279.469 89.0902 279.04 89.2275 278.639 89.502V96.7502C279.04 96.9332 279.451 97.0247 279.87 97.0247Z" fill="#ffffff"/>
<path d="M289.408 95.8442C289.408 96.3933 289.581 96.6678 289.928 96.6678C290.274 96.6678 290.612 96.5306 290.94 96.256L291.159 96.5306C290.521 97.281 289.727 97.6562 288.778 97.6562C288.14 97.6562 287.675 97.5098 287.383 97.2169C287.091 96.9058 286.945 96.4207 286.945 95.7618V85.6858C286.945 85.4295 286.826 85.3014 286.589 85.3014H285.714L285.632 85.0268C285.978 84.6974 286.425 84.4411 286.972 84.2581C287.538 84.0567 288.094 83.9561 288.642 83.9561C288.879 83.9561 289.061 84.011 289.189 84.1208C289.335 84.2123 289.408 84.3496 289.408 84.5326V95.8442Z" fill="#ffffff"/>
<path d="M296.99 96.7502C297.519 96.7502 297.984 96.6587 298.385 96.4756C298.787 96.2743 299.179 95.9448 299.562 95.4873L299.891 95.7344C299.471 96.3384 298.933 96.8143 298.276 97.162C297.638 97.4915 296.935 97.6562 296.169 97.6562C295.33 97.6562 294.573 97.4549 293.898 97.0522C293.241 96.6495 292.721 96.1004 292.338 95.4049C291.955 94.6911 291.763 93.8857 291.763 92.9888C291.763 91.5612 292.192 90.4264 293.049 89.5844C293.925 88.7241 295.084 88.294 296.525 88.294C297.546 88.294 298.376 88.5411 299.015 89.0353C299.672 89.5112 300 90.1335 300 90.9022C300 91.7808 299.626 92.4855 298.878 93.0163C298.148 93.5288 297.145 93.785 295.868 93.785C295.357 93.785 294.892 93.7484 294.472 93.6752C294.564 94.627 294.837 95.3774 295.293 95.9265C295.749 96.4756 296.315 96.7502 296.99 96.7502ZM296.224 88.9529C295.658 88.9529 295.211 89.3007 294.883 89.9962C294.573 90.6734 294.418 91.6252 294.418 92.8516V93.2908C294.618 93.2908 294.865 93.2725 295.156 93.2359C295.923 93.1444 296.506 92.8973 296.908 92.4946C297.327 92.0737 297.537 91.5246 297.537 90.8473C297.537 90.2982 297.409 89.8498 297.154 89.502C296.917 89.136 296.607 88.9529 296.224 88.9529Z" fill="#ffffff"/>
<defs>
<clipPath id="clip0_167_1110">
<rect width="52.2524" height="52.2525" fill="white" transform="translate(111.785 24.2168)"/>
</clipPath>
</defs>
</svg>
